# xmcd
#
# Track frame offsets:
#	150
#	18130
#	37539
#	56760
#	78512
#	98531
#	119257
#	157112
#	182359
#	214346
#
# Disc length: 3248 seconds
# Revision: 0
# Processed by: cddbd v1.5.2PL0 Copyright (c) Steve Scherf et al.
# Submitted via: dBpowerAMP V12.0
#
DISCID=710cae0a
DTITLE=Sean Webster and the Dead Lines - See It Through
DYEAR=2015
DGENRE=Blues
TTITLE0=The Mayor
TTITLE1=Always Here
TTITLE2=Whisky
TTITLE3=Stay With Me
TTITLE4=I Still Remember
TTITLE5=Heart Still Bleeds
TTITLE6=I'd Rather Go Blind
TTITLE7=Leave Me
TTITLE8=Hear Me Now
TTITLE9=See It Through
EXTD=
EXTT0=
EXTT1=
EXTT2=
EXTT3=
EXTT4=
EXTT5=
EXTT6=
EXTT7=
EXTT8=
EXTT9=
PLAYORDER=
